<?xml version="1.0" encoding="UTF-8"?>
<!DOCTYPE svg PUBLIC "-//W3C//DTD SVG 1.1//EN" "http://www.w3.org/Graphics/SVG/1.1/DTD/svg11.dtd">
<!-- Creator: CorelDRAW X7 -->
<svg xmlns="http://www.w3.org/2000/svg" xml:space="preserve" width="8.26772in" height="11.6929in" version="1.1" style="shape-rendering:geometricPrecision; text-rendering:geometricPrecision; image-rendering:optimizeQuality; fill-rule:evenodd; clip-rule:evenodd"
viewBox="0 0 8268 11693"
 xmlns:xlink="http://www.w3.org/1999/xlink">
 <defs>
  <style type="text/css">
   <![CDATA[
    .fil1 {fill:none}
    .fil0 {fill:#E6E7E8}
    .fil3 {fill:#1363A2}
    .fil2 {fill:#373435;fill-rule:nonzero}
   ]]>
  </style>
 </defs>
 <g id="Layer_x0020_1">
  <metadata id="CorelCorpID_0Corel-Layer"/>
  <g id="council_x0020_logo.cdr">
   <path class="fil0" d="M4134 7884c1125,0 2037,-912 2037,-2038 0,-1125 -912,-2037 -2037,-2037 -1125,0 -2037,912 -2037,2037 0,1126 912,2038 2037,2038z"/>
   <path class="fil1" d="M4134 3811c1124,0 2036,911 2036,2035 0,1125 -912,2036 -2036,2036 -1124,0 -2036,-911 -2036,-2036 0,-1124 912,-2035 2036,-2035z"/>
   <path class="fil2" d="M2445 6438l54 -21c-4,13 -6,26 -6,39 1,13 4,26 8,38 3,7 6,12 9,17 4,5 7,8 11,11 3,3 7,4 11,4 3,1 7,1 11,-1 4,-2 8,-5 11,-9 2,-4 4,-9 6,-15 1,-6 2,-13 2,-21 0,-8 1,-16 1,-24 0,-23 4,-41 12,-55 7,-14 19,-24 35,-30 13,-6 25,-7 36,-6 11,1 22,5 31,12 10,6 18,15 25,25 8,10 14,22 19,35 6,13 9,24 12,35 2,10 3,20 4,30l-51 20c1,-5 2,-10 2,-16 0,-6 0,-12 -1,-17 0,-6 -1,-11 -3,-17 -1,-5 -3,-10 -5,-14 -2,-7 -5,-12 -8,-17 -3,-4 -7,-8 -10,-11 -4,-2 -8,-4 -11,-5 -4,0 -8,0 -12,2 -4,1 -7,4 -9,7 -3,4 -5,8 -6,13 -1,5 -2,11 -3,18 0,7 0,14 0,23 -1,11 -1,21 -3,31 -1,10 -4,19 -7,26 -4,8 -9,15 -15,21 -6,6 -14,11 -24,15 -14,5 -26,7 -38,6 -11,-1 -21,-5 -30,-12 -10,-6 -18,-15 -25,-26 -8,-11 -14,-22 -19,-36 -5,-13 -9,-26 -12,-39 -3,-13 -3,-25 -2,-36zm380 309l-37 -65 -186 105 -30 -51 187 -106 -37 -65 42 -24 103 182 -42 24zm91 265c-60,52 -114,49 -162,-6 -47,-54 -41,-107 18,-157l115 -99 39 45 -116 100c-32,27 -37,54 -16,79 22,25 48,24 79,-3l117 -101 39 45 -113 97zm-8 150l174 -198 70 62c70,61 77,124 20,188 -27,31 -58,47 -93,49 -35,1 -69,-12 -101,-40l-70 -61zm186 -123l-110 126 22 19c20,17 40,24 61,23 21,-2 41,-13 58,-33 17,-19 24,-39 23,-59 -2,-20 -12,-39 -32,-56l-22 -20zm209 404l-136 -80 133 -227 131 77 -25 41 -79 -46 -30 50 74 44 -24 41 -74 -43 -30 52 85 49 -25 42zm305 127l-56 -21 -41 -193c-3,-12 -4,-20 -5,-25l0 -1c-3,9 -8,23 -14,40l-53 135 -52 -20 95 -245 60 23 39 187c2,8 4,16 5,25l0 0c2,-6 6,-18 12,-34l53 -136 52 20 -95 245zm327 -152l-74 -13 -36 212 -59 -10 36 -212 -73 -12 8 -48 206 35 -8 48zm38 213l1 -59c11,9 22,16 34,21 13,4 25,7 38,7 8,0 14,0 20,-2 5,-1 10,-3 14,-5 3,-2 6,-5 8,-8 2,-3 3,-7 3,-11 0,-5 -1,-9 -4,-13 -3,-5 -7,-8 -12,-12 -5,-3 -11,-7 -18,-10 -7,-3 -14,-7 -22,-10 -21,-9 -36,-20 -45,-33 -10,-12 -15,-27 -15,-44 1,-14 3,-26 9,-36 6,-9 13,-17 23,-24 10,-6 21,-10 33,-13 13,-3 26,-4 40,-4 14,1 26,2 36,3 11,2 20,5 29,9l-1 54c-4,-3 -9,-5 -14,-8 -5,-2 -10,-4 -16,-6 -5,-2 -11,-3 -16,-4 -6,0 -11,-1 -16,-1 -6,0 -12,0 -18,1 -6,2 -10,3 -14,6 -4,2 -7,5 -9,8 -2,3 -3,7 -3,11 0,4 1,8 3,12 2,3 5,6 10,10 4,3 9,6 15,9 6,3 13,6 21,10 10,4 19,9 28,14 8,5 15,11 21,17 6,7 10,14 13,22 3,8 5,18 4,28 0,15 -3,27 -9,37 -5,10 -13,18 -23,24 -9,6 -20,10 -33,12 -13,3 -26,4 -40,4 -15,-1 -28,-2 -41,-5 -13,-2 -25,-6 -34,-11zm308 -263l-29 84 -35 2 14 -82 50 -4zm359 197c-17,14 -40,24 -70,31 -40,9 -73,4 -101,-14 -28,-18 -46,-46 -55,-84 -10,-41 -5,-77 15,-109 19,-31 49,-51 89,-61 25,-5 47,-7 66,-5l13 56c-20,-7 -41,-7 -63,-2 -24,5 -41,18 -53,36 -11,19 -13,41 -7,67 5,24 17,43 34,54 17,12 38,15 62,9 22,-5 41,-15 57,-31l13 53zm195 -57c-34,15 -67,17 -99,4 -32,-13 -56,-37 -72,-73 -17,-38 -20,-73 -8,-106 11,-34 35,-59 71,-75 34,-16 67,-17 98,-4 31,13 55,38 72,74 17,38 20,73 8,106 -11,33 -35,58 -70,74zm-89 -203c-19,9 -30,23 -35,42 -5,19 -2,40 9,64 10,23 24,40 42,49 17,8 35,9 53,0 19,-8 30,-21 35,-40 5,-18 2,-39 -9,-63 -11,-25 -25,-42 -42,-51 -17,-9 -34,-9 -53,-1zm407 -113c43,66 34,119 -28,159 -60,39 -111,26 -153,-39l-82 -128 50 -32 82 128c24,36 49,45 77,27 27,-18 30,-44 8,-78l-84 -130 49 -33 81 126zm318 -138l-44 42 -192 -44c-12,-3 -20,-5 -25,-7l0 1c7,6 17,16 30,30l100 104 -40 39 -182 -190 46 -44 186 43c8,2 16,4 24,6l1 0c-5,-4 -14,-13 -26,-25l-101 -105 40 -39 183 189zm172 -245c-3,21 -14,44 -32,69 -23,33 -51,52 -84,57 -33,5 -65,-3 -97,-26 -35,-25 -55,-55 -61,-91 -6,-36 2,-72 26,-105 15,-21 30,-37 46,-48l46 33c-18,9 -34,22 -47,40 -15,20 -20,41 -16,62 4,22 17,40 38,55 21,15 42,21 62,18 21,-3 38,-14 52,-34 14,-19 21,-39 23,-61l44 31zm86 -131l-30 52 -227 -133 30 -51 227 132zm106 -246l-57 146 -245 -95 21 -55 201 78 35 -91 45 17z"/>
   <g>
    <path class="fil3" d="M3300 5143c-146,6 -388,108 -468,181 -83,78 -48,139 -2,234 35,70 72,151 108,224 58,118 393,842 429,884l-106 -945 383 63 366 947c31,79 88,269 132,312l487 -1261 379 -60 -101 910c4,24 1,15 9,28 17,-57 78,-174 105,-229 146,-289 293,-626 437,-912 59,-115 17,-168 -57,-223 -89,-65 -371,-167 -503,-170 68,-3 634,198 124,388 -548,204 -1943,137 -1982,-165 -16,-123 178,-158 260,-206z"/>
    <path class="fil3" d="M4072 4970c-324,78 -203,578 128,495 312,-78 213,-577 -128,-495z"/>
    <path class="fil3" d="M2934 4660c-257,78 -140,467 119,388 252,-76 143,-466 -119,-388z"/>
    <path class="fil3" d="M5206 4667c-261,103 -94,478 150,375 240,-101 100,-474 -150,-375z"/>
   </g>
   <path class="fil2" d="M3732 4339l-81 25 -121 -99c-3,-2 -7,-6 -13,-13l-1 0 43 140 -64 19 -87 -285 64 -19 41 134 1 0c1,-4 2,-10 3,-18l43 -143 76 -24 -58 167 154 116zm184 -156c6,39 2,71 -13,95 -15,24 -39,38 -74,44 -15,3 -30,2 -44,-1l-10 -62c13,7 26,9 40,7 30,-5 42,-30 35,-75l-29 -175 66 -11 29 178zm112 95l-1 -67c12,10 26,18 40,22 14,5 28,8 43,8 8,0 15,-1 22,-3 6,-1 11,-4 15,-6 5,-3 8,-6 10,-10 2,-4 3,-8 3,-12 0,-6 -2,-11 -5,-16 -4,-4 -8,-8 -14,-12 -6,-4 -13,-8 -21,-11 -8,-4 -16,-7 -25,-11 -24,-9 -41,-21 -53,-35 -11,-14 -17,-31 -17,-50 0,-16 2,-29 9,-40 6,-12 14,-21 25,-28 10,-8 23,-13 37,-17 14,-3 29,-5 45,-5 15,0 29,1 41,2 12,2 23,5 33,9l1 62c-5,-4 -11,-7 -17,-9 -5,-3 -12,-5 -18,-7 -6,-1 -12,-3 -18,-3 -7,-1 -12,-1 -18,-1 -8,0 -14,1 -21,2 -6,2 -11,4 -15,6 -5,3 -8,6 -10,10 -3,4 -4,8 -4,12 0,5 2,10 4,14 3,4 7,7 12,11 5,3 10,7 17,10 7,3 15,7 24,10 12,5 23,10 32,16 10,5 18,12 25,19 7,7 12,15 16,24 3,9 5,19 5,31 1,17 -2,31 -9,42 -6,12 -14,21 -25,28 -11,7 -23,12 -38,15 -14,4 -29,5 -45,5 -16,1 -32,-1 -47,-3 -14,-3 -27,-7 -38,-12zm506 44c-23,6 -52,7 -86,1 -45,-7 -79,-26 -100,-57 -22,-30 -29,-68 -22,-112 8,-47 29,-83 62,-107 34,-25 74,-33 121,-26 28,5 52,12 70,23l-10 64c-18,-15 -39,-25 -64,-29 -28,-4 -52,1 -71,15 -20,15 -32,37 -37,67 -5,28 -1,52 13,72 13,19 33,31 60,35 26,5 51,2 74,-7l-10 61zm255 105l-167 -63 105 -279 161 61 -20 51 -98 -37 -23 62 91 35 -19 50 -91 -34 -24 64 104 39 -19 51z"/>
  </g>
 </g>
</svg>
